<?xml version="1.0" standalone="no"?>
<!DOCTYPE svg PUBLIC "-//W3C//DTD SVG 20010904//EN"
 "http://www.w3.org/TR/2001/REC-SVG-20010904/DTD/svg10.dtd">
<svg version="1.0" xmlns="http://www.w3.org/2000/svg"
 width="1001.000000pt" height="562.000000pt" viewBox="0 0 1001.000000 562.000000"
 preserveAspectRatio="xMidYMid meet">

<g transform="translate(0.000000,562.000000) scale(0.100000,-0.100000)"
fill="#000000" stroke="none">
<path d="M0 2810 l0 -2810 1605 0 1605 0 25 50 c26 51 65 85 65 56 0 -8 -3
-16 -7 -18 -5 -2 -18 -22 -31 -46 l-23 -42 3385 0 3386 0 0 2810 0 2810 -2361
0 -2361 0 31 -29 c17 -16 31 -32 31 -35 0 -16 -30 -2 -60 29 l-35 34 -2627 1
-2628 0 0 -2810z m4256 2647 c4 -4 3 -7 -3 -7 -12 0 -69 -43 -129 -98 -58 -52
-72 -62 -84 -62 -15 0 -12 9 14 41 13 15 26 32 28 36 7 17 83 73 99 73 9 0 22
6 28 14 12 14 35 16 47 3z m-1124 -372 c0 -5 -5 -11 -11 -13 -6 -2 -11 4 -11
13 0 9 5 15 11 13 6 -2 11 -8 11 -13z m3578 -15 c0 -5 -4 -10 -10 -10 -5 0
-10 5 -10 10 0 6 5 10 10 10 6 0 10 -4 10 -10z m-1675 -10 c4 -6 -7 -10 -25
-10 -18 0 -29 4 -25 10 3 6 15 10 25 10 10 0 22 -4 25 -10z m-1955 -15 c0 -2
-10 -9 -22 -15 -22 -11 -22 -10 -4 4 21 17 26 19 26 11z m1817 -1 c-3 -3 -12
-4 -19 -1 -8 3 -5 6 6 6 11 1 17 -2 13 -5z m-1877 -32 c0 -25 -102 -98 -120
-87 -6 4 -9 3 -8 -2 2 -4 1 -8 -2 -8 -3 -1 -16 -11 -30 -22 -14 -12 -34 -29
-45 -38 l-20 -17 20 7 c44 16 55 17 55 6 0 -6 -7 -11 -16 -11 -8 0 -12 -4 -9
-10 6 -10 -10 -15 -30 -10 -5 1 -14 3 -20 3 -5 0 -10 11 -10 24 0 16 6 23 20
24 12 0 15 3 7 6 -9 3 9 18 44 38 32 18 61 32 64 30 4 -2 14 7 24 21 11 13 24
24 31 24 7 0 15 7 19 15 6 16 26 21 26 7z m3730 -8 c0 -8 -4 -12 -10 -9 -5 3
-10 10 -10 16 0 5 5 9 10 9 6 0 10 -7 10 -16z m-3930 -9 c0 -8 -7 -15 -15 -15
-13 0 -14 3 -3 15 16 18 18 18 18 0z m35 -5 c-10 -11 -20 -18 -23 -15 -7 6 18
35 31 35 5 0 2 -9 -8 -20z m976 -63 l-24 -22 19 27 c10 14 21 24 23 22 3 -3
-6 -15 -18 -27z m-741 6 c-8 -3 -18 -11 -22 -17 -4 -6 -10 -7 -15 -3 -9 10 16
27 37 26 13 -1 13 -1 0 -6z m108 -33 c-19 -21 -41 -52 -49 -67 -7 -15 -19 -31
-26 -36 -6 -4 -19 -28 -29 -53 -10 -27 -21 -41 -26 -36 -6 6 -6 17 0 28 29 58
47 90 61 107 44 55 84 97 93 97 5 0 -6 -18 -24 -40z m-158 6 c0 -3 -4 -8 -10
-11 -5 -3 -10 -1 -10 4 0 6 5 11 10 11 6 0 10 -2 10 -4z m-94 -44 c-2 -4 -19
-9 -38 -10 -19 -1 -28 1 -21 6 16 10 65 14 59 4z m-171 -12 c3 -6 -7 -18 -24
-28 -17 -9 -31 -23 -31 -29 0 -7 -10 -13 -22 -12 -22 0 -22 1 -3 9 11 5 16 9
12 9 -4 1 1 10 12 22 12 13 24 18 33 13 10 -6 10 -4 -1 9 -12 15 -11 17 2 17
9 0 19 -5 22 -10z m-10 -64 c-11 -8 -24 -12 -29 -8 -5 3 -1 9 10 13 31 12 39
10 19 -5z m1691 -21 c-21 -7 -43 -20 -47 -27 -6 -10 -11 -10 -20 -1 -9 9 -4
15 22 27 19 8 45 15 59 15 20 0 16 -3 -14 -14z m-1823 -6 c-6 -6 -9 -18 -6
-27 4 -10 2 -13 -5 -8 -16 9 -15 33 1 39 20 9 22 8 10 -4z m1731 -43 c-6 -15
-34 -31 -34 -19 0 5 30 32 37 33 1 0 0 -6 -3 -14z m-1804 -16 c0 -5 -2 -10 -4
-10 -3 0 -8 5 -11 10 -3 6 -1 10 4 10 6 0 11 -4 11 -10z m510 -30 c0 -13 -11
-13 -30 0 -12 8 -11 10 8 10 12 0 22 -4 22 -10z m-53 -126 c-3 -3 -12 -4 -19
-1 -8 3 -5 6 6 6 11 1 17 -2 13 -5z m88 -17 c-40 -29 -73 -64 -100 -107 -12
-19 -30 -42 -39 -49 -15 -13 -16 -12 -6 13 5 15 16 33 23 40 6 7 31 34 55 60
37 40 70 64 92 65 3 0 -8 -10 -25 -22z m-175 -47 c-20 -13 -33 -13 -25 0 3 6
14 10 23 10 15 0 15 -2 2 -10z m-45 -50 c3 -5 1 -10 -4 -10 -6 0 -11 5 -11 10
0 6 2 10 4 10 3 0 8 -4 11 -10z m2475 -74 c25 -2 79 -12 120 -22 41 -10 81
-17 89 -15 7 1 10 -2 6 -9 -5 -8 1 -11 16 -9 36 3 109 -12 109 -23 0 -5 5 -6
10 -3 6 3 10 0 10 -7 0 -10 2 -10 9 1 5 8 11 9 15 3 3 -6 2 -13 -4 -17 -5 -3
-10 -11 -10 -16 0 -6 7 -3 16 5 17 17 54 22 54 7 0 -15 -18 -23 -25 -11 -4 6
-11 7 -17 4 -5 -4 7 -16 28 -28 25 -14 39 -29 39 -41 0 -11 4 -25 8 -32 4 -7
5 -23 1 -37 -4 -19 -1 -26 17 -31 l24 -8 -22 -8 c-15 -5 -21 -14 -17 -24 3 -8
11 -12 18 -9 6 3 0 -3 -14 -14 -14 -12 -26 -19 -29 -17 -5 6 -26 -17 -40 -43
-7 -12 -17 -20 -22 -16 -6 3 -20 -2 -31 -13 -12 -10 -18 -12 -14 -5 11 19 -5
14 -24 -8 -10 -12 -17 -29 -15 -38 2 -9 4 -21 4 -25 1 -5 5 -5 11 -2 6 3 7 -1
4 -9 -3 -9 -10 -14 -14 -11 -5 3 -9 -3 -8 -12 2 -76 -13 -166 -30 -188 l-20
-25 -6 33 c-3 17 -10 39 -16 47 -7 12 -12 11 -28 -8 -10 -12 -22 -19 -26 -15
-3 3 -6 0 -6 -8 -1 -9 -4 -8 -11 5 -8 13 -13 15 -19 6 -5 -8 -23 -3 -65 19
-32 17 -63 31 -70 31 -6 0 -21 9 -33 20 -12 11 -26 20 -32 20 -7 0 -21 10 -32
23 -11 12 -17 16 -13 10 8 -17 4 -16 -31 2 -16 8 -36 15 -45 15 -9 0 -36 9
-60 20 -50 22 -74 26 -63 8 5 -7 3 -8 -6 -3 -16 10 -207 18 -228 10 -9 -4 -39
-8 -66 -10 -27 -2 -51 -7 -55 -12 -3 -4 -19 -9 -36 -11 -16 -2 -50 -16 -75
-33 -37 -24 -41 -29 -22 -29 13 0 20 -4 17 -10 -4 -7 3 -7 20 0 38 15 72 12
79 -5 4 -10 13 -14 29 -10 12 3 43 1 67 -5 25 -6 61 -12 80 -14 19 -3 36 -9
38 -15 2 -6 9 -11 16 -11 7 0 23 -12 37 -27 13 -14 18 -23 12 -19 -7 4 -13 3
-13 -3 0 -5 6 -12 13 -14 6 -3 -42 -4 -108 -2 -66 2 -129 -1 -140 -5 -18 -8
-18 -9 5 -10 18 -1 8 -7 -35 -24 -81 -31 -154 -70 -190 -102 -32 -27 -32 -27
36 -8 11 3 46 24 77 45 31 22 87 49 126 61 62 19 75 20 136 9 68 -12 127 -40
87 -41 -10 0 -15 -4 -12 -10 4 -6 -37 -9 -108 -9 -93 0 -124 -4 -168 -21 -30
-12 -58 -25 -64 -29 -5 -4 -29 -13 -52 -21 -57 -18 -54 -30 7 -30 41 0 50 -3
50 -17 0 -17 39 -76 40 -60 0 4 10 -2 23 -13 23 -23 88 -60 122 -71 19 -7 19
-7 -1 -8 -42 -2 -110 31 -155 75 -28 28 -46 39 -46 29 0 -8 4 -15 9 -15 4 0
18 -21 31 -47 12 -25 29 -48 37 -49 21 -5 134 -45 139 -50 3 -2 -1 -10 -9 -17
-10 -9 -11 -9 -6 1 4 6 2 12 -3 12 -6 0 -11 -7 -11 -16 0 -11 6 -14 20 -9 25
8 41 -1 33 -21 -4 -12 -8 -12 -21 -2 -13 11 -14 11 -8 0 5 -8 1 -21 -9 -32
-15 -17 -15 -19 4 -25 54 -17 263 57 411 145 149 89 275 136 335 124 19 -3 35
-11 36 -18 3 -37 0 -143 -4 -156 -12 -36 -14 -70 -3 -70 6 0 2 -7 -8 -15 -20
-15 -20 -15 0 -15 10 0 15 -4 9 -8 -5 -4 -10 -16 -9 -27 0 -11 -5 -30 -13 -42
-7 -13 -9 -23 -3 -23 5 0 9 -26 9 -57 0 -79 12 -164 22 -158 4 3 10 1 13 -4 4
-5 2 -12 -3 -15 -6 -4 -6 -18 -1 -36 12 -41 2 -70 -36 -105 -51 -48 -71 -56
-111 -49 -26 5 -34 4 -29 -5 4 -6 5 -11 2 -11 -2 0 -13 -3 -23 -7 -16 -6 -16
-5 -5 9 11 14 10 18 -9 29 -26 13 -150 14 -222 0 -31 -5 -49 -5 -57 3 -21 21
-28 -14 -12 -56 19 -48 51 -71 117 -87 37 -9 56 -20 70 -41 11 -17 25 -30 31
-30 21 0 73 -69 80 -105 7 -37 1 -122 -9 -132 -11 -11 -114 -3 -148 11 -19 7
-54 16 -79 20 -105 15 -221 -67 -327 -232 -36 -57 -48 -70 -97 -106 -15 -11
-25 -24 -23 -30 2 -6 -2 -23 -10 -39 -23 -46 -17 -197 8 -197 4 0 16 13 26 30
9 16 21 30 26 30 4 0 6 -4 3 -8 -8 -13 48 -231 74 -284 12 -26 19 -52 15 -58
-3 -5 0 -10 7 -11 10 0 10 -2 0 -6 -6 -2 -9 -10 -6 -15 4 -6 2 -8 -4 -4 -16
10 -25 -13 -12 -29 8 -10 9 -15 2 -15 -6 0 -9 -13 -7 -30 3 -21 0 -30 -10 -30
-17 0 -19 -9 -7 -27 13 -21 102 -63 133 -63 16 0 38 -9 49 -20 11 -11 15 -20
9 -20 -6 0 -9 -9 -6 -19 4 -17 -1 -20 -42 -23 -29 -2 -45 -7 -44 -15 2 -7 -4
-10 -12 -7 -8 4 -15 2 -15 -4 0 -5 -12 -13 -27 -17 -22 -5 -24 -8 -12 -16 10
-8 7 -9 -13 -6 -16 2 -28 0 -28 -6 0 -6 -3 -7 -7 -4 -3 4 -12 2 -19 -4 -10 -9
-15 -7 -20 5 -4 9 -17 16 -33 16 -20 0 -23 -2 -11 -10 12 -8 11 -10 -7 -10
-12 0 -24 4 -27 9 -3 4 -18 6 -32 3 -20 -4 -25 -2 -19 8 5 9 2 10 -15 5 -15
-5 -20 -4 -16 4 4 6 -5 13 -21 17 -15 4 -32 10 -38 14 -18 12 -46 20 -41 11 3
-5 -1 -12 -9 -15 -22 -8 -83 60 -97 109 -7 22 -15 42 -18 45 -16 15 -34 65
-32 91 2 19 -2 29 -11 29 -18 0 -37 43 -37 85 0 43 -9 67 -23 58 -6 -4 -8 0
-4 11 4 10 3 15 -3 11 -6 -3 -10 5 -10 19 0 14 -5 28 -10 31 -6 4 -8 11 -5 16
4 5 -1 9 -9 9 -10 0 -13 6 -9 16 5 13 14 8 45 -25 21 -23 36 -46 33 -50 -2 -5
6 -25 20 -45 14 -20 25 -42 25 -48 0 -6 10 -27 22 -47 13 -20 23 -39 23 -43 0
-3 4 -10 9 -15 5 -4 5 9 1 32 -4 22 -8 46 -8 53 -1 19 -17 14 -18 -5 0 -13 -3
-12 -10 6 -10 26 5 56 24 44 6 -3 7 -1 3 6 -4 6 -15 10 -24 9 -11 -2 -18 5
-20 20 -3 20 -6 21 -19 10 -14 -11 -15 -10 -10 7 16 59 18 76 6 69 -9 -5 -10
3 -5 30 5 28 3 38 -8 42 -9 3 -14 10 -11 14 9 14 -6 39 -20 34 -7 -3 -16 0
-21 7 -5 9 -2 10 9 6 10 -4 21 1 27 11 11 16 11 16 6 0 -3 -10 -1 -20 4 -23 6
-4 10 3 10 15 0 11 -7 23 -15 26 -8 4 -15 11 -15 16 0 6 7 7 16 4 8 -3 12 -2
9 4 -3 6 -14 10 -23 11 -12 0 -11 3 6 9 l22 10 -21 21 -22 22 24 20 c24 20 24
20 2 14 -31 -7 -29 7 5 32 l27 21 -32 -6 c-26 -5 -33 -3 -33 10 0 11 9 16 28
17 17 1 20 3 9 6 -9 2 -14 9 -11 15 4 6 8 44 9 84 1 45 8 80 16 91 12 15 12
16 -2 11 -10 -4 -16 -1 -16 8 0 8 3 14 7 14 4 0 6 16 4 35 -1 19 3 41 9 48 7
6 13 21 13 32 2 26 37 139 59 190 10 22 16 42 15 44 -1 2 3 7 10 11 6 4 12 13
14 21 1 8 7 23 13 34 5 11 8 26 6 33 -3 6 0 12 5 12 5 0 12 13 14 30 3 22 0
30 -10 30 -12 0 -12 3 -2 15 9 11 10 19 3 26 -13 13 -43 1 -43 -19 0 -8 -3
-13 -6 -9 -4 3 -13 0 -20 -8 -8 -8 -21 -12 -29 -9 -11 5 -15 -2 -16 -22 0 -24
-2 -26 -8 -10 -7 19 -8 19 -13 -2 -4 -12 -12 -22 -20 -22 -9 0 -10 3 -2 8 9 5
8 11 -2 20 -12 11 -14 9 -14 -13 0 -14 -4 -25 -10 -25 -5 0 -10 -7 -10 -16 0
-11 -6 -13 -19 -9 -13 4 -27 -1 -40 -14 -16 -16 -21 -17 -21 -6 0 9 -6 12 -15
8 -10 -3 -15 -1 -13 7 2 7 -2 14 -9 17 -7 3 -10 -5 -8 -22 1 -18 -2 -25 -10
-21 -8 3 -11 -2 -8 -15 3 -10 0 -19 -6 -19 -6 0 -11 6 -11 13 0 8 -3 8 -8 2
-4 -6 -29 -25 -56 -43 -27 -18 -46 -32 -42 -32 4 0 1 -6 -6 -14 -9 -10 -15
-11 -20 -2 -5 7 -8 5 -8 -6 0 -10 -8 -26 -17 -36 -40 -43 -73 -90 -55 -78 7 4
7 -3 -1 -23 -6 -17 -15 -28 -19 -25 -4 3 -9 -13 -9 -35 -2 -54 -3 -58 -11 -67
-5 -4 -8 0 -8 10 0 9 -4 15 -9 11 -6 -3 -4 -17 5 -33 19 -38 18 -43 -11 -36
-22 5 -25 3 -22 -17 7 -41 -22 -88 -56 -91 -17 -2 -33 -9 -35 -17 -3 -8 0 -11
5 -8 5 3 9 -3 10 -13 1 -11 -3 -22 -8 -26 -6 -4 -6 -11 1 -20 7 -7 10 -19 7
-26 -3 -7 -10 2 -17 20 -8 22 -17 31 -27 28 -8 -4 -11 -1 -8 5 4 6 13 8 21 5
7 -3 16 -1 19 4 4 6 -7 10 -24 10 l-31 0 20 20 c11 11 24 20 29 20 5 0 11 11
13 25 3 16 1 25 -7 25 -7 0 -17 10 -23 23 -6 12 -11 16 -11 10 -1 -20 -19 -15
-26 6 -3 11 -13 21 -23 23 -12 2 -17 15 -18 48 -2 63 -15 150 -24 155 -3 2 -5
43 -4 90 2 48 -1 97 -6 111 -6 15 -6 26 1 30 8 4 7 10 -2 16 -12 8 -12 10 0
15 11 5 11 7 0 14 -12 7 -11 9 1 9 12 0 12 2 1 9 -10 7 -11 13 -2 30 7 11 8
21 2 21 -5 0 -5 17 1 43 6 23 11 48 11 55 0 6 4 12 8 12 5 0 6 7 3 15 -7 17
16 105 27 105 4 0 10 11 13 25 4 14 20 47 36 74 17 26 30 51 30 54 0 4 9 17
21 29 20 23 127 161 186 240 48 65 109 185 128 253 10 33 24 74 33 90 8 17 21
55 28 85 7 30 18 75 24 100 7 25 13 57 15 72 9 66 69 136 165 193 86 51 284
181 337 221 70 53 198 113 296 139 82 22 107 24 232 20 77 -2 160 -6 185 -9z
m-1930 -17 c0 -5 -15 -16 -32 -24 -41 -16 -128 -26 -128 -14 0 5 10 9 23 9 12
0 31 7 41 15 10 8 23 12 27 9 5 -3 17 0 26 5 23 14 43 14 43 0z m4447 -105
c-3 -3 -12 -4 -19 -1 -8 3 -5 6 6 6 11 1 17 -2 13 -5z m-2023 -69 c-4 -8 -11
-15 -16 -15 -6 0 -5 6 2 15 7 8 14 15 16 15 2 0 1 -7 -2 -15z m2041 -25 c8
-13 -5 -13 -25 0 -13 8 -13 10 2 10 9 0 20 -4 23 -10z m-4500 -89 c-3 -6 -11
-11 -17 -11 -6 0 -6 6 2 15 14 17 26 13 15 -4z m2491 -10 c-3 -5 -15 -7 -26
-4 -28 7 -25 13 6 13 14 0 23 -4 20 -9z m229 -1 c3 -6 -1 -7 -9 -4 -18 7 -21
14 -7 14 6 0 13 -4 16 -10z m-155 -21 c-12 -9 -11 -10 5 -4 43 15 63 13 58 -6
-8 -28 -48 -60 -66 -53 -9 3 -14 10 -11 15 3 5 -2 6 -11 3 -9 -4 -14 -13 -11
-20 3 -8 0 -11 -9 -7 -8 3 -13 9 -10 13 3 5 -3 10 -12 13 -14 3 -11 6 10 11
17 5 27 15 27 27 0 13 7 19 23 19 18 0 19 -2 7 -11z m-65 -19 c-3 -5 -11 -10
-16 -10 -6 0 -7 5 -4 10 3 6 11 10 16 10 6 0 7 -4 4 -10z m-40 -18 c-3 -3 -11
0 -18 7 -9 10 -8 11 6 5 10 -3 15 -9 12 -12z m-45 -17 c-7 -9 -15 -13 -19 -10
-3 3 1 10 9 15 21 14 24 12 10 -5z m-50 -55 c0 -5 -5 -10 -11 -10 -5 0 -7 5
-4 10 3 6 8 10 11 10 2 0 4 -4 4 -10z m2485 -42 l16 -33 -20 25 c-20 24 -26
40 -16 40 2 0 12 -15 20 -32z m-2419 -34 c-4 -12 -2 -15 9 -10 13 4 14 2 5
-14 -8 -16 -8 -20 4 -20 8 0 17 10 19 23 3 18 4 17 2 -3 -1 -14 -6 -34 -10
-45 -7 -18 -6 -18 14 3 25 25 32 28 26 10 -3 -7 4 -24 14 -37 18 -23 19 -23
45 -6 20 14 30 15 39 6 6 -6 16 -11 22 -11 5 0 3 5 -5 10 -12 8 -11 10 8 10
12 0 22 5 22 11 0 6 7 9 15 6 8 -4 17 -2 20 4 11 16 25 -1 23 -27 -2 -16 -26
-50 -65 -89 -35 -36 -63 -70 -63 -76 0 -6 -7 -9 -15 -6 -8 4 -17 2 -21 -4 -4
-6 -13 -4 -25 7 -18 16 -20 16 -37 1 -10 -10 -24 -17 -30 -17 -6 0 -16 -9 -22
-20 -6 -11 -17 -20 -25 -20 -8 0 -15 -5 -15 -11 0 -5 -4 -7 -10 -4 -5 3 -10 1
-10 -6 0 -6 -8 -9 -20 -6 -15 4 -20 0 -20 -13 0 -21 -40 -50 -70 -50 -28 0
-25 19 8 55 16 16 35 49 42 72 7 23 17 40 23 36 6 -3 7 -2 4 4 -8 13 14 83 26
83 5 0 6 7 3 16 -4 9 -2 22 3 28 5 6 9 14 10 19 0 11 53 107 59 107 2 0 1 -7
-2 -16z m-2546 -154 c24 -7 36 -6 41 2 5 8 14 9 27 2 27 -12 12 -53 -20 -56
-13 0 -35 -2 -50 -3 -16 -1 -28 2 -28 6 0 5 -8 9 -18 9 -28 0 -32 10 -14 30
21 22 19 22 62 10z m-90 -25 c0 -14 6 -25 13 -26 6 -1 1 -5 -13 -9 -17 -5 -19
-8 -7 -9 9 -1 17 -5 17 -11 0 -5 -11 -9 -25 -8 -14 1 -25 6 -25 10 0 5 -10 2
-22 -6 -19 -12 -25 -12 -35 -1 -10 10 -9 16 2 25 22 18 18 30 -7 30 -20 1 -21
2 -6 10 17 10 48 4 48 -9 0 -4 10 -7 23 -6 14 1 21 8 21 19 -1 9 2 16 7 16 5
0 9 -11 9 -25z m231 -8 c-10 -9 -11 -8 -5 6 3 10 9 15 12 12 3 -3 0 -11 -7
-18z m-356 -8 c4 -6 -2 -21 -14 -33 -12 -12 -21 -26 -21 -32 0 -5 -17 -10 -37
-12 -21 -1 -42 -7 -47 -12 -14 -14 -26 -12 -26 3 0 13 37 34 98 57 21 8 31 18
28 26 -6 16 10 19 19 3z m-160 -40 c4 -5 -5 -28 -20 -49 -17 -24 -24 -44 -19
-52 6 -10 5 -11 -7 -1 -12 10 -22 10 -47 1 -26 -10 -37 -10 -52 0 -15 9 -20 9
-20 1 0 -21 -49 -77 -80 -92 -22 -12 -30 -12 -30 -3 0 13 43 48 73 59 9 4 21
17 26 30 6 16 20 26 40 30 26 6 31 11 31 37 0 21 5 30 16 30 12 0 15 -7 12
-25 -6 -30 -3 -31 28 -6 15 12 20 21 12 23 -15 5 -1 28 17 28 8 0 17 -5 20
-11z m4729 -65 c3 -8 2 -12 -4 -9 -6 3 -10 10 -10 16 0 14 7 11 14 -7z m38
-56 c-13 -13 -32 -1 -31 20 0 11 3 12 6 5 7 -19 23 -16 24 5 1 15 2 15 6 -2 3
-10 0 -23 -5 -28z m-2832 -7 c0 -5 14 -14 32 -20 17 -6 29 -14 25 -17 -3 -3
-14 -1 -25 5 -42 22 -76 22 -94 -2 -14 -18 -20 -19 -27 -8 -6 9 -18 11 -35 7
-35 -9 -33 0 7 24 32 20 117 28 117 11z m-2270 -35 c0 -2 -7 -7 -16 -10 -8 -3
-12 -2 -9 4 6 10 25 14 25 6z m5069 -25 c-15 -5 -22 6 -14 19 6 9 10 9 16 -1
5 -8 4 -15 -2 -18z m-5026 -3 c2 -7 0 -21 -5 -32 -8 -15 -12 -16 -20 -5 -7 10
-8 8 -4 -7 4 -14 -2 -28 -19 -44 -24 -23 -36 -17 -15 8 7 9 7 9 -2 2 -18 -15
-26 -12 -33 10 -5 17 -10 18 -26 9 -18 -9 -19 -8 -10 9 16 30 40 35 49 11 8
-20 10 -19 36 15 29 38 41 44 49 24z m-167 -113 c-9 -9 -16 -13 -16 -8 0 12
22 34 28 28 2 -2 -3 -11 -12 -20z m3554 -174 c0 -6 -14 -9 -30 -7 -26 3 -30 1
-25 -15 5 -15 0 -17 -27 -16 -18 0 -40 -1 -48 -4 -23 -6 -18 24 6 36 28 14
124 19 124 6z m1323 -260 c3 -14 1 -18 -9 -14 -8 3 -14 11 -14 19 0 21 17 17
23 -5z m77 -30 c0 -5 -7 -14 -15 -21 -12 -10 -15 -10 -15 2 0 8 3 18 7 21 9
10 23 9 23 -2z m24 -27 c3 -8 2 -12 -4 -9 -6 3 -10 10 -10 16 0 14 7 11 14 -7z
m66 -11 c0 -8 -4 -12 -9 -9 -5 3 -12 -4 -16 -17 -6 -19 -8 -20 -12 -4 -3 10
-2 24 0 31 7 17 37 16 37 -1z m147 -35 c-3 -7 -5 -2 -5 12 0 14 2 19 5 13 2
-7 2 -19 0 -25z m-80 -15 c-3 -10 -5 -4 -5 12 0 17 2 24 5 18 2 -7 2 -21 0
-30z m-3107 -167 c0 -2 -7 -9 -15 -16 -13 -11 -14 -10 -9 4 5 14 24 23 24 12z
m-2301 -213 c0 -10 -4 -26 -8 -36 -6 -16 -9 -17 -19 -5 -14 18 -4 58 14 58 8
0 14 -8 13 -17z m437 6 c3 -6 0 -15 -7 -20 -22 -14 -29 -11 -29 11 0 21 24 27
36 9z m22 -54 c-3 -14 -1 -25 3 -25 5 0 9 -5 9 -10 0 -12 -37 -9 -57 3 -23 14
-14 29 12 23 20 -5 25 -3 25 14 0 11 3 20 6 20 4 0 4 -11 2 -25z m-429 -134
c6 -20 7 -40 2 -49 -7 -13 -12 -10 -25 16 -17 33 -21 64 -9 76 9 9 18 -3 32
-43z m1731 -41 c0 -5 -5 -10 -11 -10 -5 0 -7 5 -4 10 3 6 8 10 11 10 2 0 4 -4
4 -10z m-1662 -29 c3 -8 -1 -12 -9 -9 -7 2 -15 10 -17 17 -3 8 1 12 9 9 7 -2
15 -10 17 -17z m82 0 c0 -17 -12 -41 -21 -41 -4 0 -5 7 -2 17 5 12 3 14 -8 8
-12 -8 -12 -6 0 8 15 18 31 23 31 8z m5222 -123 c-6 -6 -15 -8 -19 -4 -4 4 -1
11 7 16 19 12 27 3 12 -12z m-47 -2 c20 8 29 -15 12 -34 -8 -9 -12 -24 -10
-32 4 -12 2 -12 -5 -2 -5 7 -13 12 -18 11 -27 -5 -31 2 -20 36 6 20 14 31 20
25 4 -4 14 -6 21 -4z m-3855 -32 c0 -20 -7 -17 -20 6 -9 16 -8 18 5 14 8 -4
15 -12 15 -20z m3795 -43 c3 -5 0 -13 -6 -16 -5 -4 -8 -14 -4 -23 3 -9 3 -13
-1 -9 -4 4 -13 2 -21 -4 -10 -9 -13 -7 -13 9 0 43 28 70 45 43z m709 -16 c3
-8 1 -15 -4 -15 -6 0 -10 7 -10 15 0 8 2 15 4 15 2 0 6 -7 10 -15z m-4627 -9
c-3 -8 1 -20 9 -27 8 -7 13 -18 10 -26 -3 -8 1 -16 9 -19 8 -4 15 -12 15 -20
0 -42 77 -164 103 -164 5 0 7 -10 3 -23 -3 -12 2 -42 10 -66 8 -24 13 -50 10
-57 -3 -8 0 -11 10 -7 8 3 14 -1 14 -10 0 -8 9 -26 20 -40 33 -42 23 -53 -13
-14 -18 20 -36 37 -41 37 -7 0 -28 15 -83 60 -7 6 -15 10 -18 10 -3 0 -19 12
-36 28 -91 79 -107 108 -61 106 12 0 19 3 17 7 -3 4 -2 21 1 38 l7 32 25 -23
25 -23 -21 40 c-30 58 -53 117 -42 110 6 -3 10 3 10 14 0 22 10 51 17 51 3 0
3 -6 0 -14z m153 -12 c0 -8 -19 -13 -24 -6 -3 5 1 9 9 9 8 0 15 -2 15 -3z m87
-11 c-4 -3 -2 -12 5 -20 6 -7 8 -17 4 -20 -4 -4 -11 -1 -16 7 -8 13 -10 13
-10 1 0 -8 -3 -12 -6 -9 -6 7 13 48 23 48 3 0 3 -3 0 -7z m33 -3 c0 -5 -4 -10
-10 -10 -5 0 -10 5 -10 10 0 6 5 10 10 10 6 0 10 -4 10 -10z m3604 -41 c-3 -5
-11 -9 -19 -9 -11 0 -12 7 -6 39 1 2 8 -2 16 -9 8 -7 12 -16 9 -21z m-3601
-16 c-7 -3 -13 -12 -13 -21 0 -15 -2 -15 -10 -2 -14 22 -12 26 13 27 12 0 16
-1 10 -4z m-43 -93 c0 -5 -5 -10 -11 -10 -5 0 -7 5 -4 10 3 6 8 10 11 10 2 0
4 -4 4 -10z m-657 -21 c-4 -15 -8 -17 -14 -8 -8 14 -3 29 11 29 4 0 6 -9 3
-21z m-136 -19 c1 -11 -2 -22 -8 -25 -5 -4 -9 5 -9 19 0 30 15 35 17 6z m1208
-120 c3 -5 1 -10 -4 -10 -6 0 -11 5 -11 10 0 6 2 10 4 10 3 0 8 -4 11 -10z
m18 -33 c3 -8 1 -20 -5 -28 -8 -11 -9 -11 -5 2 3 9 0 22 -6 28 -8 8 -8 11 0
11 6 0 13 -6 16 -13z m-1418 -80 c0 -23 -4 -37 -12 -37 -7 0 -13 3 -14 8 0 4
-2 16 -5 27 -5 27 3 48 19 42 6 -2 12 -20 12 -40z m1535 33 c0 -5 -2 -10 -4
-10 -3 0 -8 5 -11 10 -3 6 -1 10 4 10 6 0 11 -4 11 -10z m3550 -4 c0 -2 -8
-10 -17 -17 -16 -13 -17 -12 -4 4 13 16 21 21 21 13z m-2890 -47 c0 -21 -1
-22 -24 -13 -16 6 -22 35 -9 47 10 11 33 -13 33 -34z m-2249 9 c1 -7 1 -24 1
-37 -1 -14 3 -31 10 -38 7 -9 7 -13 0 -13 -17 0 -33 36 -30 70 2 29 17 42 19
18z m2342 5 c11 -10 -13 -32 -29 -26 -20 8 -17 33 4 33 10 0 22 -3 25 -7z
m-833 -73 c14 -27 2 -70 -19 -70 -14 0 -17 7 -13 30 2 17 8 30 13 30 5 0 9 5
9 11 0 5 -4 7 -10 4 -5 -3 -10 -1 -10 4 0 18 19 12 30 -9z m710 -40 c0 -11 -4
-20 -9 -20 -14 0 -23 18 -16 30 10 17 25 11 25 -10z m39 -14 c8 -10 8 -16 -2
-24 -17 -15 -39 0 -31 21 8 21 18 22 33 3z m-2164 -145 c3 -5 1 -12 -5 -16 -5
-3 -10 1 -10 9 0 18 6 21 15 7z m5358 -8 c-7 -2 -19 -2 -25 0 -7 3 -2 5 12 5
14 0 19 -2 13 -5z m-5383 -64 c0 -6 -4 -7 -10 -4 -5 3 -10 11 -10 16 0 6 5 7
10 4 6 -3 10 -11 10 -16z m55 1 c-3 -5 -12 -10 -18 -10 -7 0 -6 4 3 10 19 12
23 12 15 0z m4670 0 c-3 -5 -11 -10 -16 -10 -6 0 -7 5 -4 10 3 6 11 10 16 10
6 0 7 -4 4 -10z m415 -9 c0 -16 -15 -20 -40 -14 -22 6 -23 7 -4 14 27 11 44
11 44 0z m-90 -5 c0 -2 -7 -7 -16 -10 -8 -3 -12 -2 -9 4 6 10 25 14 25 6z
m190 -36 c12 -8 12 -10 -5 -10 -11 0 -27 5 -35 10 -12 8 -12 10 5 10 11 0 27
-5 35 -10z m-5150 -24 c0 -3 -4 -8 -10 -11 -5 -3 -10 -1 -10 4 0 6 5 11 10 11
6 0 10 -2 10 -4z m4657 -28 c-3 -8 -6 -5 -6 6 -1 11 2 17 5 13 3 -3 4 -12 1
-19z m-4677 -36 c0 -7 -4 -10 -10 -7 -5 3 -10 16 -10 28 0 18 2 19 10 7 5 -8
10 -21 10 -28z m4657 23 c0 -8 -6 -16 -14 -19 -13 -5 -18 15 -6 27 11 11 20 8
20 -8z m-69 -37 c-8 -13 -20 -42 -26 -65 -7 -24 -17 -43 -22 -43 -6 0 -10 -9
-10 -20 0 -11 5 -20 10 -20 6 0 10 -7 10 -16 0 -9 -5 -12 -12 -8 -8 5 -9 -2
-5 -25 6 -29 5 -32 -16 -29 -21 3 -22 8 -22 81 l0 77 45 44 c50 48 70 58 48
24z m-4532 -24 c-18 -17 -26 -18 -26 -1 0 7 9 13 20 14 18 2 18 0 6 -13z
m4959 6 c3 -5 1 -10 -4 -10 -6 0 -11 5 -11 10 0 6 2 10 4 10 3 0 8 -4 11 -10z
m-23 -41 c-12 -5 -22 -13 -22 -18 0 -5 -6 -11 -14 -14 -11 -4 -11 -1 -2 19 11
23 33 35 50 26 5 -3 0 -9 -12 -13z m-342 -189 c0 -5 -4 -10 -10 -10 -5 0 -10
5 -10 10 0 6 5 10 10 10 6 0 10 -4 10 -10z m-4209 -213 c-13 -13 -26 -3 -16
12 3 6 11 8 17 5 6 -4 6 -10 -1 -17z m-19 -109 c2 -13 9 -22 15 -21 8 2 7 -9
-5 -31 -19 -38 -36 -39 -22 -2 5 13 6 27 2 30 -10 11 -12 46 -3 46 5 0 11 -10
13 -22z m108 -42 c0 -2 -11 -6 -25 -8 -13 -3 -22 -1 -19 3 5 9 44 13 44 5z
m-10 -77 c0 -5 -4 -8 -9 -4 -5 3 -12 1 -16 -4 -3 -6 -12 -8 -20 -5 -8 4 -12
10 -9 15 7 13 54 11 54 -2z m-149 -22 c-10 -9 -11 -8 -5 6 3 10 9 15 12 12 3
-3 0 -11 -7 -18z m119 -48 c0 -6 -7 -8 -16 -5 -8 3 -13 2 -10 -3 3 -4 -1 -17
-9 -27 -15 -20 -18 -13 -9 24 6 22 44 32 44 11z m-162 -34 c-6 -14 -13 -24
-14 -22 -6 6 9 47 17 47 5 0 3 -11 -3 -25z m-46 -110 c-2 -14 -9 -25 -14 -25
-5 0 -7 3 -5 8 2 4 7 15 10 25 9 25 15 21 9 -8z"/>
<path d="M5753 4194 c0 -7 4 -11 9 -8 4 3 8 0 8 -5 0 -6 -7 -11 -15 -11 -9 0
-12 -6 -9 -15 4 -8 11 -15 17 -15 6 0 7 3 4 7 -4 3 3 17 15 30 12 13 20 24 17
24 -23 7 -46 4 -46 -7z"/>
<path d="M5815 4120 c-3 -5 -1 -10 4 -10 6 0 11 5 11 10 0 6 -2 10 -4 10 -3 0
-8 -4 -11 -10z"/>
<path d="M4510 3718 c0 -4 14 -8 30 -8 17 0 30 4 30 9 0 5 -13 9 -30 9 -16 -1
-30 -5 -30 -10z"/>
<path d="M4468 3693 c6 -2 18 -2 25 0 6 3 1 5 -13 5 -14 0 -19 -2 -12 -5z"/>
<path d="M5060 2776 c0 -8 -8 -17 -18 -20 -9 -3 -28 -26 -42 -51 -14 -25 -28
-45 -31 -45 -4 0 -12 -13 -17 -29 -6 -16 -26 -53 -46 -81 -37 -53 -40 -69 -12
-53 20 11 124 150 140 188 7 17 25 41 39 55 25 25 25 42 0 48 -7 1 -13 -4 -13
-12z"/>
<path d="M4235 2488 c-5 -5 -19 -15 -30 -23 -11 -8 -15 -14 -10 -14 13 -1 61
36 55 42 -3 3 -9 1 -15 -5z"/>
<path d="M3919 2273 c-13 -16 -12 -17 4 -4 9 7 17 15 17 17 0 8 -8 3 -21 -13z"/>
<path d="M5257 2263 c-9 -10 -15 -33 -14 -52 2 -27 7 -35 25 -38 13 -1 21 1
18 6 -4 5 -2 21 3 34 8 19 6 27 -4 31 -8 3 -12 12 -9 21 8 20 1 19 -19 -2z"/>
<path d="M4796 1142 c-3 -6 -1 -14 5 -17 14 -9 20 -2 10 14 -6 8 -11 9 -15 3z"/>
<path d="M4462 1040 c7 -10 14 -18 15 -16 6 6 -9 36 -18 36 -5 0 -4 -9 3 -20z"/>
<path d="M3313 3663 c-13 -2 -23 -8 -23 -13 0 -10 38 -1 46 11 3 5 4 8 2 8 -2
-1 -13 -4 -25 -6z"/>
<path d="M3515 1820 c-3 -5 -1 -10 4 -10 6 0 11 5 11 10 0 6 -2 10 -4 10 -3 0
-8 -4 -11 -10z"/>
</g>
</svg>
